<svg width="20" height="21" viewBox="0 0 20 21" fill="none" xmlns="http://www.w3.org/2000/svg">
<path d="M15.8333 2.83325H4.16667C3.24619 2.83325 2.5 3.57944 2.5 4.49992V16.1666C2.5 17.0871 3.24619 17.8333 4.16667 17.8333H15.8333C16.7538 17.8333 17.5 17.0871 17.5 16.1666V4.49992C17.5 3.57944 16.7538 2.83325 15.8333 2.83325Z" stroke="white" stroke-width="1.5" stroke-linecap="round" stroke-linejoin="round"/>
<path d="M7.08325 8.6665C7.77361 8.6665 8.33325 8.10686 8.33325 7.4165C8.33325 6.72615 7.77361 6.1665 7.08325 6.1665C6.3929 6.1665 5.83325 6.72615 5.83325 7.4165C5.83325 8.10686 6.3929 8.6665 7.08325 8.6665Z" stroke="white" stroke-width="1.5" stroke-linecap="round" stroke-linejoin="round"/>
<path d="M17.5001 12.8332L13.3334 8.6665L4.16675 17.8332" stroke="white" stroke-width="1.5" stroke-linecap="round" stroke-linejoin="round"/>
</svg>
